<svg xmlns="http://www.w3.org/2000/svg" width="212.54" height="300" viewBox="0 0 212.54 300">
  <g id="html" transform="translate(-0.445)">
    <path id="Caminho_1" data-name="Caminho 1" d="M212.985,70.766,193.622,287.68l-87.037,24.129-86.8-24.1L.445,70.766Z" transform="translate(0 -11.809)" fill="#e44d26"/>
    <path id="Caminho_2" data-name="Caminho 2" d="M128,296.918l70.33-19.5L214.876,92.057H128Z" transform="translate(-21.285 -15.362)" fill="#f16529"/>
    <path id="Caminho_3" data-name="Caminho 3" d="M77,150.6h37.641V124H47.917l.637,7.138,6.54,73.324h59.543V177.849H79.428Zm6,67.159H56.282l3.727,41.778,54.5,15.13.122-.033V246.952l-.117.031-29.633-8-1.895-21.221Z" transform="translate(-7.922 -20.691)" fill="#ebebeb"/>
    <path id="Caminho_4" data-name="Caminho 4" d="M24.18,0H37.7V13.359H50.071V0H63.594V40.455H50.072V26.908H37.7V40.455H24.181V0ZM81.374,13.416h-11.9V0h37.336V13.416H94.9V40.455H81.377V13.416h0ZM112.733,0h14.1l8.673,14.215L144.17,0h14.1V40.455H144.808V20.4l-9.3,14.384h-.233L125.963,20.4V40.455h-13.23ZM165,0H178.53V27.083h19.015V40.455H165V0Z" transform="translate(-3.961)"/>
    <path id="Caminho_5" data-name="Caminho 5" d="M127.89,204.457h32.764l-3.089,34.508-29.676,8.01v27.682l54.547-15.117.4-4.5,6.253-70.05.649-7.145H127.89v26.608Zm0-53.919v.065h64.27l.533-5.98,1.213-13.489.636-7.138H127.89v26.544Z" transform="translate(-21.267 -20.691)" fill="#fff"/>
  </g>
</svg>
